<?xml version="1.0" encoding="UTF-8"?>
<svg width="34px" height="18px" viewBox="0 0 34 18" version="1.1" xmlns="http://www.w3.org/2000/svg" xmlns:xlink="http://www.w3.org/1999/xlink">
    <!-- Generator: Sketch 63.1 (92452) - https://sketch.com -->
    <title>dg23195_flyout_logo_2_34x18</title>
    <desc>Created with Sketch.</desc>
    <defs>
        <polygon id="path-1" points="9.95443182e-05 0.000398286443 30.345 0.000398286443 30.345 16.164 9.95443182e-05 16.164"></polygon>
    </defs>
    <g id="dg23195_flyout_logo_2_34x18" stroke="none" stroke-width="1" fill="none" fill-rule="evenodd">
        <g id="Group-3" transform="translate(2.000000, 1.000000)">
            <mask id="mask-2" fill="white">
                <use xlink:href="#path-1"></use>
            </mask>
            <g id="Clip-2"></g>
            <path d="M26.5311,0.000398286443 L3.8021,0.0134 C1.6441,0.0144 -0.0009,1.7644 9.95443182e-05,3.9234 L0.0071,16.0804 C0.0071,16.1264 0.0441,16.1644 0.0911,16.1644 L3.0291,16.1624 C3.0751,16.1624 3.1121,16.1244 3.1121,16.0784 L3.1051,3.7394 L27.2281,3.7264 L27.2351,16.0644 C27.2351,16.1114 27.2731,16.1484 27.3191,16.1484 L30.2611,16.1464 C30.3081,16.1464 30.3451,16.1094 30.3451,16.0634 L30.3391,3.9054 C30.3371,1.7474 28.6901,-0.0016 26.5311,0.000398286443" id="Fill-1" fill="#FFFFFF" mask="url(#mask-2)"></path>
        </g>
    </g>
</svg>